v -0.000581696 -0.734665 -0.623267
v 0.000283538 -1 0.286843
v -0.117277 -0.973564 0.306907
v -0.382144 -0.890788 0.221243
v -0.247144 -0.942602 0.276051
v -0.656078 -0.718512 -0.109025
v -0.609847 -0.786562 0.0198068
v -0.66248 -0.632053 -0.244271
v -0.511812 -0.845392 0.127809
v -0.609326 -0.569868 -0.41571
v -0.426949 -0.649767 -0.567143
v -0.201076 -0.720822 -0.633205
v 0.117382 -0.973645 0.306766
v 0.382454 -0.890869 0.221097
v 0.247512 -0.942667 0.275986
v 0.656371 -0.718624 -0.109224
v 0.610273 -0.786562 0.0197893
v 0.66248 -0.631463 -0.244119
v 0.511631 -0.845357 0.127832
v 0.608654 -0.568839 -0.416318
v 0.424663 -0.649937 -0.567418
v 0.198972 -0.720968 -0.633141
v 0.153371 -0.140519 0.477416
v 0.134781 -0.14723 0.48805
v 0.131261 -0.132153 0.49872
v 0.14749 -0.135105 0.489565
v 0.000686924 -0.0534984 0.505694
v 0.075062 -0.0473306 0.49955
v 0.0695841 -0.0997942 0.550277
v 0.0302569 -0.0971868 0.55389

vt  0.616 0.254 0.000
vt  0.653 0.261 0.000
vt  0.658 0.307 0.000
vt  0.619 0.292 0.000
vt  0.636 0.438 0.000
vt  0.620 0.419 0.000
vt  0.627 0.396 0.000
vt  0.647 0.414 0.000
vt  0.886 0.312 0.000
vt  0.897 0.370 0.000
vt  0.860 0.369 0.000
vt  0.844 0.308 0.000
vt  0.740 0.593 0.000

vn  0.001 0.482 -0.876
vn  -0.001 0.661 0.751
vn  0.136 0.595 0.792
vn  -0.203 0.679 0.706
vn  -0.092 0.474 0.876
vn  -0.184 0.792 0.581
vn  -0.098 0.863 0.495
vn  -0.449 0.820 0.356
vn  -0.220 0.748 0.626
vn  -0.560 0.798 -0.222
vn  -0.233 0.531 -0.815
vn  0.001 0.534 -0.845
vn  -0.135 0.596 0.791
vn  0.203 0.676 0.708
vn  0.091 0.476 0.875
vn  0.189 0.792 0.581
vn  0.099 0.862 0.496
vn  -0.800 0.573 -0.178
vn  0.296 -0.070 0.953
vn  -0.319 -0.065 0.946

g head
s 1
f 1// 25//12 26//
f 24/1 26/3 23
f 28/5/28 29/6/29 30/7/30
f 28/5/28 30/7/30 27/8/27
